<svg width="36" height="30" viewBox="0 0 36 30" fill="none" xmlns="http://www.w3.org/2000/svg">
  <path d="M0 18.4987C0 21.611 2.07323 24.3225 4.99754 24.7757C6.82728 25.0592 13.5382 25.4131 15.1502 25.4953C15.3776 25.5069 15.5929 25.5953 15.7632 25.7465L20.5 29.9512L24.7508 25.7587C24.9121 25.5996 25.1212 25.5001 25.3464 25.4757C26.3476 25.3673 29.2827 25.0422 31.0025 24.7757C33.9268 24.3225 36 21.6129 36 18.4968V6.79096C36 3.67485 33.9268 0.965271 31.0025 0.512054C26.6972 -0.15374 22.3514 0.0200316 18 0.0214761C13.584 0.0214761 9.24185 -0.145403 4.99754 0.512054C2.07323 0.965271 0 3.67679 0 6.79096V18.4968V18.4987Z" fill="url(#paint0_linear_2_786)"/>
  <path opacity="0.15" d="M4.7199 23.0102C1.95805 22.5803 0 20.0085 0 17.0566V18.4956C0 21.6079 2.07323 24.3194 4.99754 24.7726C6.82879 25.0563 13.5493 25.4106 15.1541 25.4924C15.3794 25.5039 15.5924 25.5918 15.7621 25.7425L20.5 29.9481L24.7514 25.755C24.9124 25.5962 25.1198 25.4972 25.3432 25.473C26.3412 25.3649 29.2808 25.0394 31.0025 24.7726C33.9268 24.3194 36 21.6098 36 18.4937V6.78786C36 3.67175 33.9268 0.962169 31.0025 0.508952C30.9318 0.498026 30.8611 0.487327 30.7905 0.476849C32.7289 1.43987 34 3.57085 34 5.95214V17.0548C34 20.0103 32.042 22.5803 29.2801 23.0102C27.666 23.2613 25.7136 23.7376 24.7514 23.8423C24.5274 23.8667 24.3185 23.9664 24.1573 24.126L20.5 27.9006L16.111 24.0939C15.9411 23.9424 15.7259 23.8539 15.5 23.8423C13.946 23.7626 6.44119 23.278 4.7199 23.0102Z" fill="black"/>
  <path d="M13.1569 16.5212C14.7255 17.4682 16.6706 18.7939 19.4314 16.5212" stroke="black" stroke-width="0.784314" stroke-linecap="round"/>
  <ellipse cx="7.51395" cy="15.1983" rx="2.41913" ry="1.19709" transform="rotate(4.98072 7.51395 15.1983)" fill="#EAADCC"/>
  <ellipse cx="25.0699" cy="15.169" rx="2.41913" ry="1.19709" transform="rotate(-4.25608 25.0699 15.169)" fill="#EAADCC"/>
  <circle r="3.76471" transform="matrix(1 0 0 -1 23.8235 11.2859)" fill="white"/>
  <circle r="2.5098" transform="matrix(1 0 0 -1 23.8235 11.2859)" fill="black"/>
  <circle r="0.941176" transform="matrix(1 0 0 -1 22.8823 10.9722)" fill="white"/>
  <circle r="3.76471" transform="matrix(1 0 0 -1 9.39215 11.2859)" fill="white"/>
  <circle r="2.5098" transform="matrix(1 0 0 -1 9.39213 11.2859)" fill="black"/>
  <circle r="0.941176" transform="matrix(1 0 0 -1 8.45094 10.9722)" fill="white"/>
  <circle opacity="0.25" cx="31" cy="18" r="1" fill="white"/>
  <circle opacity="0.25" cx="29.5" cy="4.5" r="1.5" fill="white"/>
  <circle opacity="0.25" cx="3" cy="6" r="1" fill="white"/>
  <circle opacity="0.25" cx="28.5" cy="19.5" r="0.5" fill="white"/>

  <defs>
    <linearGradient id="paint0_linear_2_786" x1="5.5" y1="-0.485808" x2="24.7827" y2="31.4099" gradientUnits="userSpaceOnUse">
      <stop stop-color="#35EB9A"/>
      <stop offset="1" stop-color="#33A06F"/>
    </linearGradient>
  </defs>
</svg>
